<?xml version="1.0" standalone="no"?>
<!DOCTYPE svg PUBLIC "-//W3C//DTD SVG 20010904//EN"
 "http://www.w3.org/TR/2001/REC-SVG-20010904/DTD/svg10.dtd">
<svg version="1.0" xmlns="http://www.w3.org/2000/svg"
 width="1280.000000pt" height="1486.000000pt" viewBox="0 0 1280.000000 1486.000000"
 preserveAspectRatio="xMidYMid meet">

<g transform="translate(0.000000,1486.000000) scale(0.100000,-0.100000)"
fill="#000000" stroke="none">
<path d="M2148 14839 c-367 -25 -775 -116 -1103 -248 -82 -33 -184 -72 -225
-86 -163 -59 -344 -175 -450 -292 -155 -169 -275 -410 -324 -648 -60 -292 -44
-660 44 -1021 149 -605 510 -1280 1030 -1924 l77 -95 6 -195 c21 -636 232
-1218 642 -1770 165 -220 473 -539 683 -705 55 -44 101 -83 101 -87 1 -4 -31
-47 -70 -95 -545 -676 -929 -1832 -929 -2798 0 -918 346 -1465 925 -1465 135
0 240 19 378 66 205 72 430 199 672 382 44 33 81 59 83 58 1 -2 -2 -61 -8
-132 -32 -404 -32 -1140 0 -1565 86 -1107 344 -1817 756 -2082 142 -91 299
-133 461 -123 292 17 565 165 868 470 206 208 407 479 570 769 33 59 62 107
65 107 3 0 32 -49 65 -108 81 -145 255 -404 357 -532 319 -399 657 -638 984
-695 106 -18 176 -19 274 -1 582 106 936 853 1040 2199 32 414 32 1137 0 1556
-6 74 -9 135 -8 137 2 1 39 -25 83 -58 308 -233 610 -386 859 -433 113 -22
285 -20 382 5 454 115 711 592 731 1361 10 389 -34 759 -143 1198 -160 646
-451 1273 -783 1684 -39 48 -71 91 -70 95 0 4 46 43 102 87 126 99 486 457
589 585 488 611 738 1276 738 1963 l0 118 78 97 c592 731 966 1482 1082 2172
27 160 37 454 21 600 -48 422 -233 765 -521 969 -94 66 -167 104 -295 151 -55
21 -158 61 -229 89 -447 181 -1039 273 -1550 243 -314 -19 -541 -57 -820 -137
-450 -129 -899 -353 -1294 -645 l-28 -21 -104 25 c-248 58 -568 109 -900 143
-253 26 -1028 26 -1280 0 -327 -34 -660 -86 -898 -143 l-106 -25 -28 21 c-16
12 -84 58 -151 104 -743 505 -1566 734 -2429 675z m542 -349 c460 -41 882
-165 1299 -381 138 -71 321 -179 321 -189 0 -3 -69 -29 -153 -58 -237 -83
-389 -146 -631 -261 l-128 -61 -103 91 c-217 191 -456 372 -675 508 -146 91
-457 247 -580 291 -88 32 -92 35 -63 42 96 25 513 35 713 18z m7980 0 c202
-18 200 -16 64 -70 -390 -155 -779 -402 -1185 -751 l-148 -128 -148 70 c-231
110 -616 264 -736 294 -15 4 -27 10 -27 14 0 11 183 119 333 197 395 204 825
331 1268 373 123 12 446 12 579 1z m-9140 -277 c370 -60 827 -284 1249 -612
128 -100 290 -234 290 -242 1 -3 -63 -48 -140 -99 -289 -191 -509 -372 -736
-601 -161 -163 -239 -254 -362 -419 -253 -338 -442 -729 -537 -1105 -13 -55
-27 -106 -30 -114 -9 -28 -277 361 -419 609 -324 563 -485 1074 -485 1537 0
361 86 617 274 811 210 219 510 297 896 235z m10075 17 c242 -23 416 -101 561
-252 138 -143 220 -320 259 -563 20 -119 19 -374 -1 -517 -67 -484 -288 -1015
-649 -1558 -150 -224 -233 -336 -239 -319 -3 8 -15 52 -26 99 -205 822 -786
1579 -1643 2144 l-139 91 52 48 c29 26 107 92 174 145 512 408 1017 647 1441
682 49 4 92 8 95 9 3 0 55 -4 115 -9z m-4835 -360 c453 -27 831 -85 1255 -192
630 -158 1254 -436 1742 -775 373 -260 724 -601 960 -933 310 -438 478 -896
514 -1405 14 -195 2 -403 -36 -610 -136 -737 -602 -1428 -1320 -1960 -1192
-883 -2930 -1250 -4595 -969 -1378 232 -2558 894 -3198 1794 -265 372 -423
733 -497 1136 -117 634 15 1287 375 1858 693 1101 2090 1859 3740 2031 324 34
748 44 1060 25z m-3481 -6530 l102 -55 -5 -55 c-4 -30 -15 -138 -27 -240 -26
-244 -36 -692 -20 -940 37 -566 150 -1091 335 -1564 l34 -85 -102 -89 c-301
-263 -558 -429 -791 -509 -105 -36 -116 -38 -240 -38 -125 0 -132 1 -195 31
-86 41 -138 89 -198 179 -219 327 -262 993 -112 1734 137 672 416 1307 768
1748 l81 102 133 -82 c74 -45 180 -107 237 -137z m6673 118 c220 -277 412
-628 562 -1030 274 -737 367 -1577 235 -2113 -48 -192 -140 -371 -232 -450
-23 -20 -71 -51 -107 -68 -63 -31 -68 -32 -195 -32 -123 0 -135 2 -237 37
-125 43 -192 76 -335 163 -130 80 -293 202 -445 334 l-117 102 20 47 c32 73
144 406 173 513 177 651 230 1387 150 2084 -8 72 -17 155 -20 185 l-5 55 111
60 c62 33 167 94 233 137 67 42 123 77 124 77 2 1 40 -45 85 -101z m-6129
-377 c613 -259 1334 -426 2092 -482 206 -15 744 -15 950 0 800 59 1416 205
2181 518 28 11 58 -384 56 -757 -6 -1689 -776 -3091 -2242 -4083 -165 -111
-452 -287 -469 -287 -16 0 -296 170 -445 269 -503 337 -949 744 -1282 1172
-571 732 -894 1579 -974 2554 -23 270 -15 727 15 998 8 71 15 131 15 133 0 8
12 4 103 -35z m348 -3574 c444 -664 1084 -1257 1852 -1716 75 -45 137 -86 137
-90 0 -15 -130 -261 -192 -365 -199 -331 -454 -631 -677 -795 -177 -130 -369
-196 -507 -173 -365 60 -605 553 -724 1484 -64 506 -83 1276 -44 1801 l7 88
35 -58 c19 -32 70 -111 113 -176z m4608 -212 c30 -895 -63 -1776 -240 -2292
-134 -390 -311 -597 -543 -635 -93 -15 -211 8 -332 67 -296 143 -645 527 -912
1005 -57 103 -132 253 -132 266 0 1 62 40 138 85 680 407 1259 918 1696 1497
79 105 235 335 277 409 l24 43 7 -68 c4 -37 11 -206 17 -377z"/>
<path d="M3555 12179 c-484 -53 -889 -399 -1012 -866 -35 -133 -43 -364 -18
-498 45 -245 147 -439 324 -616 547 -549 1449 -429 1838 246 125 217 177 495
139 743 -66 430 -361 788 -768 931 -155 54 -348 77 -503 60z m335 -377 c237
-71 418 -226 520 -444 34 -72 70 -206 69 -252 -1 -30 -1 -30 -10 7 -24 101
-113 207 -212 253 -55 26 -73 29 -162 29 -93 0 -105 -2 -166 -32 -82 -40 -140
-102 -182 -191 -27 -59 -31 -77 -31 -152 0 -112 27 -180 99 -258 205 -222 559
-138 651 153 21 67 17 0 -6 -91 -69 -276 -278 -496 -555 -584 -106 -34 -301
-39 -416 -12 -244 59 -432 209 -548 439 -57 113 -75 201 -75 353 0 154 14 218
73 345 108 228 316 393 566 449 95 21 295 15 385 -12z"/>
<path d="M9020 12180 c-622 -61 -1085 -593 -1057 -1215 20 -433 273 -810 670
-1000 435 -208 948 -124 1298 212 237 228 359 513 359 836 0 329 -114 604
-344 832 -197 195 -436 307 -715 335 -57 5 -111 9 -120 9 -9 -1 -50 -5 -91 -9z
m328 -379 c367 -106 611 -449 588 -826 -7 -117 -25 -192 -72 -293 -108 -235
-315 -402 -568 -457 -108 -24 -301 -17 -401 15 -277 88 -485 306 -555 584 -23
91 -27 158 -6 91 93 -293 449 -375 654 -151 69 76 95 146 96 256 0 75 -3 93
-31 152 -42 89 -100 151 -182 191 -61 30 -73 32 -166 32 -89 0 -107 -3 -162
-29 -99 -46 -188 -152 -212 -253 -9 -37 -9 -37 -10 -7 -1 45 35 180 68 250 63
134 171 259 296 342 75 50 213 106 297 121 87 16 282 6 366 -18z"/>
<path d="M5946 10458 c-457 -62 -662 -389 -476 -758 92 -183 307 -373 577
-511 119 -60 118 -42 9 -187 -177 -234 -394 -387 -652 -459 -92 -26 -112 -28
-289 -28 -208 0 -282 11 -449 67 -253 85 -412 176 -700 406 -83 66 -164 69
-233 9 -81 -71 -85 -177 -10 -255 51 -53 193 -163 306 -237 272 -178 600 -301
893 -335 104 -12 367 -9 429 6 21 5 27 1 38 -23 32 -72 151 -233 231 -312 182
-183 402 -297 677 -352 l103 -21 108 22 c270 54 486 167 670 349 82 81 200
241 233 314 11 24 17 28 38 22 15 -3 98 -8 186 -11 120 -5 189 -2 275 10 292
41 590 155 850 323 185 121 334 246 357 300 47 113 -39 243 -161 243 -53 0
-73 -11 -176 -96 -270 -221 -569 -365 -865 -416 -167 -28 -387 -22 -524 16
-253 71 -471 225 -646 458 -111 146 -111 128 8 188 267 134 485 327 577 510
189 374 -21 700 -488 759 -91 11 -811 11 -896 -1z"/>
</g>
</svg>
